<?xml version="1.0" encoding="iso-8859-1"?>
<!-- Generator: Adobe Illustrator 19.0.0, SVG Export Plug-In . SVG Version: 6.00 Build 0)  -->
<svg version="1.1" id="Capa_1" xmlns="http://www.w3.org/2000/svg" xmlns:xlink="http://www.w3.org/1999/xlink" x="0px" y="0px"
	 viewBox="0 0 480.008 480.008" style="enable-background:new 0 0 480.008 480.008;" xml:space="preserve">
<g>
	<path style="fill:#FFD884;" d="M224.049,460.944l-76.576-236.208h185.728l-77.232,236.208c-3.31,8.814-13.138,13.277-21.953,9.967
		C229.411,469.182,225.778,465.549,224.049,460.944z"/>
	<path style="fill:#FFD884;" d="M333.201,224.736h-30.92l10.152,10.152L190.345,356.976l10.128,31.24L318.257,270.44
		L333.201,224.736z"/>
	<path style="fill:#FFD884;" d="M147.473,224.736l21.664,66.824l66.816-66.824H147.473z"/>
	<path style="fill:#FFD884;" d="M238.281,224.736l10.152,10.152l-73.76,73.76l10.128,31.24l115.152-115.152H238.281z"/>
	<path style="fill:#FFD884;" d="M224.049,460.936c3.297,8.814,13.115,13.287,21.93,9.99c4.619-1.728,8.262-5.371,9.99-9.99
		l20.208-61.792l-54.496,54.496L224.049,460.936z"/>
	<path style="fill:#FFD884;" d="M206.009,405.304l10.136,31.248l71.024-71.024l20.096-61.472L206.009,405.304z"/>
</g>
<path d="M301.121,223.576l-1.168,1.16h2.328L301.121,223.576z"/>
<g>
	<path style="fill:#FFBF41;" d="M302.281,224.736h-2.328L184.801,339.888l5.544,17.088l122.088-122.088L302.281,224.736z"/>
	<path style="fill:#FFBF41;" d="M318.257,270.44L200.473,388.216l5.536,17.088l101.256-101.248L318.257,270.44z"/>
	<path style="fill:#FFBF41;" d="M221.681,453.64l54.496-54.496l10.992-33.616l-71.024,71.024L221.681,453.64z"/>
</g>
<path d="M237.121,223.576l-1.168,1.16h2.328L237.121,223.576z"/>
<path style="fill:#FFBF41;" d="M238.281,224.736h-2.328l-66.816,66.824l5.536,17.088l73.76-73.76L238.281,224.736z"/>
<path style="fill:#58B8C0;" d="M336.009,208h-0.448c0.224-2.648,0.448-5.296,0.448-8c0.007-20.111-6.34-39.711-18.136-56H162.145
	c-11.796,16.289-18.143,35.889-18.136,56c0,2.704,0.224,5.352,0.448,8h-0.448c-8.837,0-16,7.163-16,16s7.163,16,16,16h160v32
	c0,8.837,7.163,16,16,16s16-7.163,16-16v-32c8.837,0,16-7.163,16-16S344.845,208,336.009,208z"/>
<path style="fill:#EBD9EC;" d="M336.009,112h-0.448c0.224-2.648,0.448-5.296,0.448-8c0-53.019-42.981-96-96-96s-96,42.981-96,96
	c0,2.704,0.224,5.352,0.448,8h-0.448c-8.837,0-16,7.163-16,16s7.163,16,16,16h32v16c0,8.837,7.163,16,16,16s16-7.163,16-16v-16h128
	c8.837,0,16-7.163,16-16S344.845,112,336.009,112z"/>
<path d="M360.009,128c-0.031-10.161-6.469-19.198-16.064-22.544c0-0.488,0.064-0.968,0.064-1.456c0-57.438-46.562-104-104-104
	s-104,46.562-104,104c0,0.488,0.056,0.968,0.064,1.456c-12.486,4.342-19.088,17.984-14.746,30.47
	c3.356,9.65,12.466,16.106,22.682,16.074h3.76c-7.748,14.812-11.783,31.284-11.76,48c0,0.488,0.056,0.968,0.064,1.456
	c-12.486,4.342-19.088,17.984-14.747,30.47c3.356,9.65,12.466,16.106,22.683,16.074h2.192l70.352,215.752
	c4.859,12.952,19.298,19.512,32.25,14.653c6.885-2.583,12.287-8.061,14.774-14.981l54.648-167.6c0.6,0.04,1.176,0.176,1.784,0.176
	c13.255,0,24-10.745,24-24v-25.384c12.469-4.378,19.028-18.035,14.65-30.504c-2.414-6.876-7.831-12.277-14.714-14.672
	c0-0.488,0.064-0.968,0.064-1.456c0.023-16.716-4.012-33.188-11.76-48h3.76C349.257,151.984,360,141.249,360.009,128L360.009,128z
	 M240.009,16c48.577,0.057,87.943,39.423,88,88h-176C152.066,55.423,191.431,16.057,240.009,16z M163.033,248h49.664l-37.448,37.448
	L163.033,248z M180.809,302.496L235.321,248h41.376l-85.712,85.696L180.809,302.496z M248.481,458.12
	c-1.259,3.583-4.675,5.953-8.472,5.88c-3.674,0.105-7.018-2.111-8.352-5.536l-3.648-11.176l35.592-35.592L248.481,458.12z
	 M274.553,378.12l-52.096,52.096l-10.176-31.2l82.28-82.28L274.553,378.12z M206.721,381.952l-10.176-31.2l99.464-99.456V272
	c0.024,5.539,1.982,10.896,5.536,15.144L206.721,381.952z M336.009,216c4.418,0,8,3.582,8,8s-3.582,8-8,8s-8,3.582-8,8v32
	c0,4.418-3.582,8-8,8s-8-3.582-8-8v-32c0-4.418-3.582-8-8-8h-160c-4.418,0-8-3.582-8-8s3.582-8,8-8H336.009z M192.009,184
	c13.255,0,24-10.745,24-24v-8h97.696c9.35,14.261,14.323,30.947,14.304,48h-176c-0.021-17.055,4.955-33.742,14.312-48h1.688v8
	C168.009,173.255,178.754,184,192.009,184z M208.009,136c-4.418,0-8,3.582-8,8v16c0,4.418-3.582,8-8,8s-8-3.582-8-8v-16
	c0-4.418-3.582-8-8-8h-32c-4.418,0-8-3.582-8-8s3.582-8,8-8h192c4.418,0,8,3.582,8,8s-3.582,8-8,8H208.009z"/>
<g>
</g>
<g>
</g>
<g>
</g>
<g>
</g>
<g>
</g>
<g>
</g>
<g>
</g>
<g>
</g>
<g>
</g>
<g>
</g>
<g>
</g>
<g>
</g>
<g>
</g>
<g>
</g>
<g>
</g>
</svg>
