<svg height="480pt" viewBox="0 0 480 480" width="480pt" xmlns="http://www.w3.org/2000/svg"><path d="m72 8h336c35.347656 0 64 28.652344 64 64v336c0 35.347656-28.652344 64-64 64h-336c-35.347656 0-64-28.652344-64-64v-336c0-35.347656 28.652344-64 64-64zm0 0" fill="#f09e3e"/><g fill="#e3872d"><path d="m80 48h40v72h-72v-40c0-17.671875 14.328125-32 32-32zm0 0"/><path d="m152 48h72v72h-72zm0 0"/><path d="m256 48h72v72h-72zm0 0"/><path d="m360 48h40c17.671875 0 32 14.328125 32 32v40h-72zm0 0"/><path d="m48 152h72v72h-72zm0 0"/><path d="m152 152h72v72h-72zm0 0"/><path d="m256 152h72v72h-72zm0 0"/><path d="m360 152h72v72h-72zm0 0"/><path d="m48 256h72v72h-72zm0 0"/><path d="m152 256h72v72h-72zm0 0"/><path d="m256 256h72v72h-72zm0 0"/><path d="m360 256h72v72h-72zm0 0"/><path d="m48 360h72v72h-40c-17.671875 0-32-14.328125-32-32zm0 0"/><path d="m152 360h72v72h-72zm0 0"/><path d="m256 360h72v72h-72zm0 0"/><path d="m360 360h72v40c0 17.671875-14.328125 32-32 32h-40zm0 0"/><path d="m308 368c-11.046875 0-20 8.953125-20 20v28c-.015625 5.921875-2.238281 11.625-6.230469 16h46.230469v-44c0-11.046875-8.953125-20-20-20zm0 0"/></g><path d="m360 152h16.296875c-8.089844-20.132812-26.703125-34.09375-48.296875-36.222656v4.222656h-72v-32c-11.398438.058594-22.53125 3.476562-32 9.824219v22.175781h-56.710938c-20.128906 8.382812-33.886718 27.3125-35.640624 49.046875-.925782 11-4.964844 21.511719-11.648438 30.296875v24.65625h-13.542969c-3 10.457031-3 21.542969 0 32h13.542969v24.648438c6.679688 8.703124 10.71875 19.144531 11.632812 30.078124 1.675782 21.824219 15.449219 40.859376 35.65625 49.273438h56.710938v8c9.566406 3.359375 15.976562 12.382812 16 22.519531v25.480469c-.03125 9.9375 6.085938 18.859375 15.363281 22.410156 9.277344 3.554688 19.789063 1.003906 26.40625-6.410156h-25.769531v-72h72v86.640625c-.285156 13.113281 9.644531 24.203125 22.710938 25.359375 6.585937.355469 13.027343-2.015625 17.808593-6.558594 4.785157-4.539062 7.488281-10.847656 7.480469-17.441406v-16h-16v-72h16v-32h-16v-72h45.527344c2.996094-10.457031 2.996094-21.542969 0-32h-45.527344zm-136 176h-72v-72h72zm0-104h-72v-72h72zm104 104h-72v-72h72zm0-104h-72v-72h72zm0 0" fill="#f09032"/><path d="m380.351562 169.046875c-.480468-5.855469-1.851562-11.601563-4.054687-17.046875h-16.296875v72h45.542969c-2.246094-8.109375-6.230469-15.628906-11.679688-22.039062-7.890625-9.253907-12.625-20.785157-13.511719-32.914063zm0 0" fill="#db8027"/><path d="m256 256h72v72h-72zm0 0" fill="#db8027"/><path d="m360 328h16v-16c0-16 9.441406-24.449219 17.335938-33.359375 5.714843-6.535156 9.878906-14.273437 12.191406-22.640625h-45.527344zm0 0" fill="#db8027"/><path d="m288 388c0-11.046875 8.953125-20 20-20s20 8.953125 20 20v-28h-72v72h25.769531c3.992188-4.375 6.214844-10.078125 6.230469-16zm0 0" fill="#db8027"/><path d="m360 432h16v-72h-16zm0 0" fill="#db8027"/><path d="m377.863281 201.960938c-7.890625-9.253907-12.625-20.785157-13.511719-32.914063-2.285156-28.492187-24.90625-51.113281-53.398437-53.398437-12.238281-.96875-23.859375-5.78125-33.191406-13.753907-21.765625-18.527343-53.757813-18.527343-75.523438 0-9.332031 7.972657-20.953125 12.785157-33.191406 13.753907-28.492187 2.285156-51.113281 24.90625-53.398437 53.398437-.96875 12.238281-5.78125 23.859375-13.753907 33.191406-18.527343 21.765625-18.527343 53.757813 0 75.523438 7.957031 9.253906 12.765625 20.800781 13.738281 32.964843 2.199219 28.644532 24.957032 51.402344 53.597657 53.601563 6.167969.472656 20.050781 1.390625 32.289062 2.191406 12.652344.804688 22.496094 11.308594 22.480469 23.984375v25.496094c0 13.253906 10.746094 24 24 24s24-10.746094 24-24v-28c0-11.046875 8.953125-20 20-20s20 8.953125 20 20v58.640625c-.285156 13.113281 9.644531 24.203125 22.710938 25.359375 6.585937.355469 13.027343-2.015625 17.808593-6.558594 4.785157-4.539062 7.488281-10.847656 7.480469-17.441406v-136c0-16 9.441406-24.449219 17.335938-33.359375 19.351562-21.824219 19.578124-54.59375.527343-76.679687zm0 0" fill="#fc3"/><path d="m192 216c0 13.253906-10.746094 24-24 24s-24-10.746094-24-24 10.746094-24 24-24 24 10.746094 24 24zm0 0" fill="#606fa1"/><path d="m264 160c0 13.253906-10.746094 24-24 24s-24-10.746094-24-24 10.746094-24 24-24 24 10.746094 24 24zm0 0" fill="#f05d46"/><path d="m240 296c0 13.253906-10.746094 24-24 24s-24-10.746094-24-24 10.746094-24 24-24 24 10.746094 24 24zm0 0" fill="#f05d46"/><path d="m344 232c0 13.253906-10.746094 24-24 24s-24-10.746094-24-24 10.746094-24 24-24 24 10.746094 24 24zm0 0" fill="#606fa1"/><path d="m408 0h-336c-39.746094.046875-71.953125 32.253906-72 72v336c.046875 39.746094 32.253906 71.953125 72 72h336c39.746094-.046875 71.953125-32.253906 72-72v-336c-.046875-39.746094-32.253906-71.953125-72-72zm-192 416v8h-56v-52.945312c2.855469.617187 5.75 1.050781 8.664062 1.289062 6.183594.480469 20.105469 1.398438 32.375 2.199219 8.429688.550781 14.980469 7.554687 14.960938 16zm16-21.335938v-4.160156c-.035156-16.851562-13.105469-30.800781-29.921875-31.929687-12.199219-.796875-26.039063-1.710938-32.191406-2.183594-24.785157-1.765625-44.507813-21.484375-46.277344-46.269531-1.074219-13.859375-6.542969-27.015625-15.609375-37.554688-16.066406-18.738281-16.066406-46.394531 0-65.132812 9.070312-10.613282 14.542969-23.828125 15.632812-37.746094 1.890626-24.613281 21.449219-44.171875 46.0625-46.0625 13.914063-1.09375 27.125-6.5625 37.738282-15.625 18.738281-16.066406 46.394531-16.066406 65.132812 0 10.617188 9.070312 23.832032 14.546875 37.753906 15.640625 24.609376 1.890625 44.167969 21.445313 46.0625 46.054687.996094 13.832032 6.402344 26.976563 15.425782 37.503907 16.363281 19.082031 16.164062 47.304687-.464844 66.152343l-2.511719 2.792969c-10.246093 9.171875-16.320312 22.113281-16.832031 35.855469v136c.007812 4.398438-1.796875 8.605469-4.992188 11.632812-3.191406 3.027344-7.488281 4.605469-11.878906 4.367188-8.804687-.949219-15.394531-8.511719-15.128906-17.359375v-58.640625c0-15.464844-12.535156-28-28-28s-28 12.535156-28 28v28c0 8.835938-7.164062 16-16 16s-16-7.164062-16-16zm-147.503906-178.664062h-28.496094v-56h52.945312c-.601562 2.773438-1.027343 5.582031-1.273437 8.40625-.828125 10.566406-4.980469 20.59375-11.863281 28.648438-4.796875 5.644531-8.621094 12.046874-11.3125 18.945312zm11.3125 66.945312c6.867187 7.960938 11.015625 17.90625 11.847656 28.390626.238281 2.914062.667969 5.808593 1.289062 8.664062h-52.945312v-56h28.496094c2.691406 6.898438 6.515625 13.300781 11.3125 18.945312zm120.191406-198.449218c-6.898438 2.691406-13.300781 6.515625-18.945312 11.3125-8.058594 6.882812-18.089844 11.035156-28.65625 11.863281-2.820313.25-5.628907.675781-8.398438 1.273437v-52.945312h56zm104 24.449218c-2.769531-.597656-5.578125-1.023437-8.398438-1.273437-10.566406-.828125-20.597656-4.980469-28.65625-11.863281-5.644531-4.796875-12.046874-8.621094-18.945312-11.3125v-28.496094h56zm48 259.054688h56v32c0 13.253906-10.746094 24-24 24h-32zm27.441406-104h28.558594v56h-56v-8c.585938-9.753906 5.167969-18.835938 12.664062-25.105469l2.664063-2.941406c5.191406-5.878906 9.292969-12.636719 12.113281-19.953125zm-11.519531-67.265625c-6.796875-7.957031-10.859375-17.886719-11.59375-28.328125-.246094-2.824219-.671875-5.632812-1.273437-8.40625h52.945312v56h-28.585938c-2.695312-7.035156-6.585937-13.550781-11.492187-19.265625zm-103.921875 219.265625v-28c0-6.628906 5.371094-12 12-12s12 5.371094 12 12v36h-25.136719c.71875-2.609375 1.097657-5.296875 1.136719-8zm184-8c-.035156 30.914062-25.085938 55.964844-56 56h-44.480469c2.875-4.847656 4.421875-10.367188 4.480469-16v-8h32c22.082031-.027344 39.972656-17.917969 40-40v-40c0-4.417969-3.582031-8-8-8h-64v-16h64c4.417969 0 8-3.582031 8-8v-72c0-4.417969-3.582031-8-8-8h-32.617188c.640626-5.3125.640626-10.6875 0-16h32.617188c4.417969 0 8-3.582031 8-8v-72c0-4.417969-3.582031-8-8-8h-66.488281c-6.371094-12.78125-16.730469-23.140625-29.511719-29.511719v-66.488281c0-4.417969-3.582031-8-8-8h-72c-4.417969 0-8 3.582031-8 8v32.464844c-5.3125-.65625-10.6875-.65625-16 0v-32.464844c0-4.417969-3.582031-8-8-8h-72c-4.417969 0-8 3.582031-8 8v66.488281c-12.78125 6.371094-23.140625 16.730469-29.511719 29.511719h-66.488281c-4.417969 0-8 3.582031-8 8v72c0 4.417969 3.582031 8 8 8h32.464844c-.65625 5.3125-.65625 10.6875 0 16h-32.464844c-4.417969 0-8 3.582031-8 8v72c0 4.417969 3.582031 8 8 8h66.472656c6.363282 12.800781 16.730469 23.171875 29.527344 29.535156v66.464844c0 4.417969 3.582031 8 8 8h72c.820312-.035156 1.632812-.203125 2.398438-.496094 5.867187 5.460938 13.585937 8.496094 21.601562 8.496094 7.722656-.027344 15.167969-2.875 20.945312-8h35.054688v6.640625c0 6.105469 1.632812 12.097656 4.726562 17.359375h-236.726562c-30.914062-.035156-55.964844-25.085938-56-56v-336c.035156-30.914062 25.085938-55.964844 56-56h336c30.914062.035156 55.964844 25.085938 56 56zm0 0"/><path d="m120 40h-40c-22.082031.027344-39.972656 17.917969-40 40v40c0 4.417969 3.582031 8 8 8h72c4.417969 0 8-3.582031 8-8v-72c0-4.417969-3.582031-8-8-8zm-8 72h-56v-32c0-13.253906 10.746094-24 24-24h32zm0 0"/><path d="m400 40h-40c-4.417969 0-8 3.582031-8 8v72c0 4.417969 3.582031 8 8 8h72c4.417969 0 8-3.582031 8-8v-40c-.027344-22.082031-17.917969-39.972656-40-40zm24 72h-56v-56h32c13.253906 0 24 10.746094 24 24zm0 0"/><path d="m40 400c.027344 22.082031 17.917969 39.972656 40 40h40c4.417969 0 8-3.582031 8-8v-72c0-4.417969-3.582031-8-8-8h-72c-4.417969 0-8 3.582031-8 8zm16-32h56v56h-32c-13.253906 0-24-10.746094-24-24zm0 0"/><path d="m200 224c0-17.671875-14.328125-32-32-32s-32 14.328125-32 32 14.328125 32 32 32 32-14.328125 32-32zm-32 16c-8.835938 0-16-7.164062-16-16s7.164062-16 16-16 16 7.164062 16 16-7.164062 16-16 16zm0 0"/><path d="m240 192c17.671875 0 32-14.328125 32-32s-14.328125-32-32-32-32 14.328125-32 32 14.328125 32 32 32zm0-48c8.835938 0 16 7.164062 16 16s-7.164062 16-16 16-16-7.164062-16-16 7.164062-16 16-16zm0 0"/><path d="m248 296c0-17.671875-14.328125-32-32-32s-32 14.328125-32 32 14.328125 32 32 32 32-14.328125 32-32zm-32 16c-8.835938 0-16-7.164062-16-16s7.164062-16 16-16 16 7.164062 16 16-7.164062 16-16 16zm0 0"/><path d="m320 264c17.671875 0 32-14.328125 32-32s-14.328125-32-32-32-32 14.328125-32 32 14.328125 32 32 32zm0-48c8.835938 0 16 7.164062 16 16s-7.164062 16-16 16-16-7.164062-16-16 7.164062-16 16-16zm0 0"/></svg>