<?xml version="1.0" encoding="iso-8859-1"?>
<!-- Generator: Adobe Illustrator 21.0.0, SVG Export Plug-In . SVG Version: 6.00 Build 0)  -->
<svg xmlns="http://www.w3.org/2000/svg" xmlns:xlink="http://www.w3.org/1999/xlink" version="1.1" id="Capa_1" x="0px" y="0px" viewBox="0 0 512 512" style="enable-background:new 0 0 512 512;" xml:space="preserve" width="512" height="512">
<g>
	<g>
		<g>
			<g>
				<circle style="fill:#93D632;" cx="256" cy="256" r="256"/>
			</g>
		</g>
	</g>
	<path style="fill:#78B22A;" d="M258.451,511.969c127.109-1.194,232.074-95.006,250.632-217.215l-51.125-51.125h0l-403.915,0   l62.712,62.712l-45.059,10.845l30.164,30.164l-3.918,4.11L258.451,511.969z"/>
	<g>
		<rect x="97.942" y="299.141" style="fill:#E6E6E6;" width="316.115" height="52.32"/>
	</g>
	<g>
		<rect x="255.595" y="299.14" style="fill:#D7D7D7;" width="158.462" height="52.32"/>
	</g>
	<g>
		<g>
			<path style="fill:#FFCE00;" d="M54.043,243.629L54.043,243.629l121.606-121.606l121.606,121.606l0,0     C230.093,310.79,121.204,310.79,54.043,243.629z"/>
		</g>
		<g>
			<path style="fill:#FFA426;" d="M297.255,243.629L297.255,243.629L175.649,122.023l-43.791,166.327     C189.04,303.346,252.437,288.446,297.255,243.629z"/>
		</g>
		<g>
			<path style="fill:#FFBC27;" d="M132.047,243.629L132.047,243.629l121.606-121.606l121.606,121.606l0,0     C308.098,310.79,199.208,310.79,132.047,243.629z"/>
		</g>
		<g>
			<path style="fill:#FFA426;" d="M375.259,243.629L375.259,243.629L253.653,122.023l-43.791,166.327     C267.044,303.346,330.441,288.446,375.259,243.629z"/>
		</g>
		<g>
			<path style="fill:#FFCE00;" d="M214.745,243.629L214.745,243.629l121.606-121.606l121.606,121.606l0,0     C390.796,310.79,281.906,310.79,214.745,243.629z"/>
		</g>
		<g>
			<path style="fill:#FFBC27;" d="M457.957,243.629L457.957,243.629L336.351,122.023l-43.791,166.327     C349.742,303.346,413.14,288.446,457.957,243.629z"/>
		</g>
	</g>
	<g>
		<path style="fill:#FFFFFF;" d="M406.842,331.256H105.158c-16.442,0-31.681-8.622-40.148-22.717l-17.345-28.874h416.67    l-17.345,28.874C438.523,322.634,423.285,331.256,406.842,331.256z"/>
	</g>
	<g>
		<path style="fill:#E9EDF5;" d="M255.595,279.665v51.591h151.247c16.442,0,31.681-8.622,40.148-22.717l17.345-28.874H255.595z"/>
	</g>
</g>















</svg>
