<?xml version="1.0" encoding="iso-8859-1"?>
<!-- Generator: Adobe Illustrator 19.0.0, SVG Export Plug-In . SVG Version: 6.00 Build 0)  -->
<svg version="1.1" id="Capa_1" xmlns="http://www.w3.org/2000/svg" xmlns:xlink="http://www.w3.org/1999/xlink" x="0px" y="0px"
	 viewBox="0 0 512.001 512.001" style="enable-background:new 0 0 512.001 512.001;" xml:space="preserve">
<circle style="fill:#F2C301;" cx="256" cy="164.17" r="57.45"/>
<path style="fill:#EFB703;" d="M256,106.721c-4.291,0-8.466,0.485-12.488,1.377c25.723,5.704,44.965,28.636,44.965,56.075
	c0,27.44-19.242,50.372-44.965,56.076c4.022,0.892,8.197,1.377,12.488,1.377c31.73,0,57.453-25.722,57.453-57.453
	S287.731,106.721,256,106.721z"/>
<path style="fill:#FCE000;" d="M198.548,154.59c-31.73,0-57.453,25.722-57.453,57.452s25.722,57.453,57.453,57.453
	S256,243.773,256,212.043S230.278,154.59,198.548,154.59z M313.453,154.59c-31.73,0-57.453,25.722-57.453,57.452
	s25.722,57.453,57.453,57.453s57.453-25.722,57.453-57.453S345.183,154.59,313.453,154.59z"/>
<g>
	<path style="fill:#F9CF00;" d="M313.453,154.59c-4.167,0-8.226,0.455-12.141,1.297c25.897,5.573,45.312,28.592,45.312,56.155
		s-19.414,50.582-45.312,56.156c3.915,0.843,7.974,1.297,12.141,1.297c31.73,0,57.453-25.722,57.453-57.453
		S345.183,154.59,313.453,154.59z"/>
	<path style="fill:#F9CF00;" d="M199.198,154.59c-4.167,0-8.226,0.455-12.141,1.297c25.897,5.573,45.312,28.592,45.312,56.155
		s-19.414,50.582-45.312,56.156c3.915,0.843,7.974,1.297,12.141,1.297c31.73,0,57.453-25.722,57.453-57.453
		S230.928,154.59,199.198,154.59z"/>
	<path style="fill:#F9CF00;" d="M231.719,212.043c0,27.563-19.414,50.582-45.312,56.156c3.915,0.843,7.974,1.297,12.141,1.297
		c18.417,0,34.798-8.676,45.312-22.153C236.259,237.601,231.719,225.356,231.719,212.043z"/>
</g>
<circle style="fill:#EFDA17;" cx="256" cy="269.5" r="57.45"/>
<path style="fill:#F2C301;" d="M370.906,212.043c-31.73,0-57.453,25.722-57.453,57.453c0,31.73,25.722,57.453,57.453,57.453
	s57.453-25.722,57.453-57.453C428.358,237.765,402.636,212.043,370.906,212.043z M141.095,212.043
	c-31.73,0-57.453,25.722-57.453,57.453c0,31.73,25.722,57.453,57.453,57.453s57.453-25.722,57.453-57.453
	S172.825,212.043,141.095,212.043z M256,212.043c-31.73,0-57.453,25.722-57.453,57.453c0,31.73,25.722,57.453,57.453,57.453
	s57.453-25.722,57.453-57.453S287.731,212.043,256,212.043z"/>
<g>
	<path style="fill:#EFB703;" d="M177.388,269.496c0,28.114-20.199,51.496-46.873,56.464c3.431,0.639,6.964,0.989,10.58,0.989
		c19.356,0,36.463-9.582,46.873-24.25C181.313,293.32,177.388,281.87,177.388,269.496z"/>
	<path style="fill:#EFB703;" d="M292.293,269.496c0,28.114-20.199,51.496-46.873,56.464c3.431,0.639,6.964,0.989,10.58,0.989
		c19.356,0,36.463-9.582,46.873-24.25C296.218,293.32,292.293,281.87,292.293,269.496z"/>
	<path style="fill:#EFB703;" d="M370.906,212.043c-3.616,0-7.149,0.35-10.58,0.989c26.674,4.968,46.873,28.35,46.873,56.464
		S387,320.992,360.326,325.96c3.431,0.639,6.964,0.989,10.58,0.989c31.73,0,57.453-25.722,57.453-57.453
		C428.358,237.765,402.636,212.043,370.906,212.043z"/>
	<path style="fill:#EFB703;" d="M255.74,212.043c-3.616,0-7.149,0.35-10.58,0.989c26.674,4.968,46.873,28.35,46.873,56.464
		s-20.199,51.496-46.873,56.464c3.431,0.639,6.964,0.989,10.58,0.989c31.73,0,57.453-25.722,57.453-57.453
		C313.193,237.765,287.47,212.043,255.74,212.043z"/>
	<path style="fill:#EFB703;" d="M141.095,212.043c-3.616,0-7.149,0.35-10.58,0.989c26.674,4.968,46.873,28.35,46.873,56.464
		s-20.199,51.496-46.873,56.464c3.431,0.639,6.964,0.989,10.58,0.989c31.73,0,57.453-25.722,57.453-57.453
		S172.825,212.043,141.095,212.043z"/>
</g>
<g>
	<path style="fill:#FCE000;" d="M83.642,269.496c-31.73,0-57.453,25.722-57.453,57.453s25.722,57.452,57.453,57.452
		s57.453-25.722,57.453-57.452S115.373,269.496,83.642,269.496z M428.358,269.496c-31.73,0-57.453,25.722-57.453,57.453
		s25.722,57.452,57.453,57.452s57.453-25.722,57.453-57.452S460.089,269.496,428.358,269.496z M198.548,269.496
		c-31.73,0-57.453,25.722-57.453,57.453s25.722,57.452,57.453,57.452S256,358.678,256,326.948S230.278,269.496,198.548,269.496z
		 M313.453,269.496c-31.73,0-57.453,25.722-57.453,57.453s25.722,57.452,57.453,57.452s57.453-25.722,57.453-57.452
		S345.183,269.496,313.453,269.496z"/>
	<path style="fill:#FCE000;" d="M119.415,326.948c0,28.023-20.067,51.346-46.613,56.417c3.512,0.671,7.133,1.035,10.84,1.035
		c19.195,0,36.179-9.423,46.613-23.885C123.441,351.072,119.415,339.483,119.415,326.948z"/>
</g>
<g>
	<path style="fill:#F9CF00;" d="M428.358,269.496c-3.707,0-7.328,0.364-10.84,1.035c26.545,5.071,46.613,28.394,46.613,56.417
		c0,28.023-20.067,51.346-46.613,56.417c3.512,0.671,7.133,1.035,10.84,1.035c31.73,0,57.453-25.722,57.453-57.452
		S460.089,269.496,428.358,269.496z"/>
	<path style="fill:#F9CF00;" d="M313.453,269.496c-3.707,0-7.328,0.364-10.84,1.035c26.545,5.071,46.613,28.394,46.613,56.417
		c0,28.023-20.067,51.346-46.613,56.417c3.512,0.671,7.133,1.035,10.84,1.035c31.73,0,57.453-25.722,57.453-57.452
		S345.183,269.496,313.453,269.496z"/>
	<path style="fill:#F9CF00;" d="M198.548,269.496c-3.707,0-7.328,0.364-10.84,1.035c26.545,5.071,46.613,28.394,46.613,56.417
		c0,28.023-20.067,51.346-46.613,56.417c3.512,0.671,7.133,1.035,10.84,1.035c31.73,0,57.453-25.722,57.453-57.452
		S230.278,269.496,198.548,269.496z"/>
	<path style="fill:#F9CF00;" d="M83.642,269.496c-3.707,0-7.328,0.364-10.84,1.035c26.545,5.071,46.613,28.394,46.613,56.417
		c0,28.023-20.067,51.346-46.613,56.417c3.512,0.671,7.133,1.035,10.84,1.035c31.73,0,57.453-25.722,57.453-57.452
		S115.373,269.496,83.642,269.496z"/>
</g>
<g>
	<path style="fill:#FCE000;" d="M349.226,326.948c0,28.023-20.067,51.346-46.612,56.417c3.512,0.671,7.133,1.035,10.84,1.035
		c19.195,0,36.179-9.423,46.613-23.885C353.252,351.072,349.226,339.483,349.226,326.948z"/>
	<path style="fill:#FCE000;" d="M234.32,326.948c0,28.023-20.067,51.346-46.613,56.417c3.512,0.671,7.133,1.035,10.84,1.035
		c19.195,0,36.179-9.423,46.613-23.885C238.347,351.072,234.32,339.483,234.32,326.948z"/>
</g>
<g>
	<circle style="fill:#F2C301;" cx="437.77" cy="298.23" r="7.805"/>
	<circle style="fill:#F2C301;" cx="321.26" cy="295.38" r="7.805"/>
	<circle style="fill:#F2C301;" cx="321.26" cy="180.7" r="7.805"/>
	<circle style="fill:#F2C301;" cx="95.78" cy="295.38" r="7.805"/>
</g>
<g>
	<circle style="fill:#FCE000;" cx="154.19" cy="239.11" r="7.805"/>
	<circle style="fill:#FCE000;" cx="263.81" cy="132.13" r="7.805"/>
</g>
<path style="fill:#C4D9E8;" d="M496.391,359.664H15.61c-8.621,0-15.61-6.989-15.61-15.61l0,0c0-8.621,6.989-15.61,15.61-15.61
	h240.13h240.651c8.621,0,15.61,6.989,15.61,15.61l0,0C512.001,352.675,505.012,359.664,496.391,359.664z"/>
<path style="fill:#B2CAD8;" d="M496.391,328.445h-80.13c8.621,0,15.61,6.989,15.61,15.61l0,0c0,8.621-6.989,15.61-15.61,15.61h80.13
	c8.621,0,15.61-6.989,15.61-15.61l0,0C512.001,335.433,505.012,328.445,496.391,328.445z"/>
<path style="fill:#E5F2FC;" d="M512.001,344.054c0-8.621-6.989-15.61-15.61-15.61H255.74H15.61c-8.621,0-15.61,6.989-15.61,15.61
	h255.711H512.001z"/>
<path style="fill:#D4E9F4;" d="M496.391,328.445h-80.13c8.621,0,15.61,6.989,15.61,15.61h80.13
	C512.001,335.433,505.012,328.445,496.391,328.445z"/>
<path style="fill:#E5F2FC;" d="M256,359.664H19.252l9.774,7.537c7.372,5.684,12.891,13.427,15.859,22.25
	c3.183,9.459,12.048,15.83,22.028,15.83H256h189.087c9.98,0,18.845-6.371,22.028-15.83c2.968-8.822,8.488-16.566,15.859-22.25
	l9.774-7.537H256z"/>
<path style="fill:#D4E9F4;" d="M256,359.664H19.252l9.774,7.537c2.762,2.13,5.264,4.549,7.469,7.205h187.591h190.701
	c15.256,0,25.809,15.213,20.509,29.518c-0.034,0.091-0.065,0.18-0.095,0.268c-0.125,0.37-0.273,0.727-0.415,1.088h10.302
	c10.041,0,18.846-6.481,22.081-15.986c2.981-8.758,8.478-16.443,15.806-22.093l9.774-7.537L256,359.664L256,359.664z"/>
<g>
</g>
<g>
</g>
<g>
</g>
<g>
</g>
<g>
</g>
<g>
</g>
<g>
</g>
<g>
</g>
<g>
</g>
<g>
</g>
<g>
</g>
<g>
</g>
<g>
</g>
<g>
</g>
<g>
</g>
</svg>
