<?xml version="1.0" encoding="iso-8859-1"?>
<!-- Generator: Adobe Illustrator 19.0.0, SVG Export Plug-In . SVG Version: 6.00 Build 0)  -->
<svg version="1.1" id="Capa_1" xmlns="http://www.w3.org/2000/svg" xmlns:xlink="http://www.w3.org/1999/xlink" x="0px" y="0px"
	 viewBox="0 0 512 512" style="enable-background:new 0 0 512 512;" xml:space="preserve">
<g>
	<path style="fill:#FF9455;" d="M174.125,351.729l62.353,36l-36,62.353l-62.353-36L174.125,351.729L174.125,351.729z
		 M205.495,290.525l52.619-30.38l30.38,52.619l-52.619,30.38L205.495,290.525L205.495,290.525z M246.469,210.542
		c-55.748-5.648-119.454-13.033-156.693-4.358L106.003,482c0.646,10.981,9,20,20,20H306c10.999,0,19.355-9.02,20-20l1.447-24.599
		l14.355-244.038c-14.136,3.292-37.731,2.38-65.456,0.019C266.803,212.57,256.771,211.585,246.469,210.542z"/>
	<g>
		
			<rect x="216.607" y="271.271" transform="matrix(0.5 0.866 -0.866 0.5 384.7251 -63.0729)" style="fill:#FFFBEE;" width="60.758" height="60.758"/>
		
			<rect x="151.296" y="364.894" transform="matrix(-0.866 -0.5 0.5 -0.866 149.0442 841.7238)" style="fill:#FFFBEE;" width="71.998" height="71.998"/>
	</g>
	<g>
		<path style="fill:#FF435F;" d="M246.469,210.542c10.303,1.043,20.334,2.028,29.876,2.841l4.781-71.379H251.06L246.469,210.542z"/>
		<polygon style="fill:#FF435F;" points="251.059,142.004 281.126,142.004 284.178,96.463 425.998,37.719 414.518,10.003 
			255.489,75.875 		"/>
	</g>
	<g>
		<path style="fill:#FFFBEE;" d="M246.469,210.542l4.591-68.538H86.001l3.774,64.18
			C127.015,197.509,190.721,204.894,246.469,210.542z"/>
		<path style="fill:#FFFBEE;" d="M281.126,142.004l-4.781,71.379c27.726,2.361,51.321,3.274,65.456-0.019l4.198-71.36H281.126z"/>
	</g>
</g>
<path d="M435.237,33.892l-11.48-27.716c-2.114-5.103-7.963-7.526-13.066-5.412L251.663,66.635c-3.513,1.455-5.896,4.776-6.15,8.57
	l-3.805,56.797H86.001c-2.754,0-5.387,1.136-7.275,3.14c-1.89,2.004-2.869,4.698-2.707,7.448L96.02,482.587
	C96.989,499.08,110.159,512,126.001,512h179.997c15.843,0,29.013-12.92,29.982-29.413l15.793-268.468
	c0.002-0.024,0.003-0.048,0.005-0.071l4.203-71.457c0.162-2.749-0.817-5.444-2.707-7.448c-1.889-2.004-4.521-3.14-7.275-3.14
	h-54.181l1.922-28.678l136.086-56.367c2.45-1.015,4.397-2.961,5.412-5.412S436.252,36.343,435.237,33.892z M240.367,152.004
	l-3.184,47.539c-0.197-0.02-0.395-0.04-0.592-0.06c-49.816-5.1-101.148-10.351-137.497-5.169l-2.489-42.31H240.367z
	 M257.093,201.554l3.319-49.551h10.022l-3.384,50.507C263.772,202.204,260.451,201.885,257.093,201.554z M305.999,492H126.001
	c-5.355,0-9.662-4.551-10.018-10.587l-15.709-267.049c34.015-5.244,87.044,0.178,134.28,5.014
	c31.404,3.215,59.933,6.136,82.05,6.136c5.206,0,10.046-0.167,14.496-0.525l-13.084,222.413H286.41c-5.522,0-10,4.477-10,10
	s4.478,10,10,10h30.43l-0.824,14.012C315.661,487.449,311.354,492,305.999,492z M335.393,152.004l-3.105,52.799
	c-11.346,1.25-27.145,0.747-45.307-0.601l3.496-52.199L335.393,152.004L335.393,152.004z M280.35,87.224
	c-3.513,1.455-5.897,4.776-6.15,8.57l-2.426,36.21h-10.022l3.3-49.267l144.054-59.668l3.827,9.238L280.35,87.224z"/>
<path d="M257.681,447.404h-0.236c-5.522,0-10,4.477-10,10s4.478,10,10,10h0.236c5.522,0,10-4.477,10-10
	C267.681,451.882,263.203,447.404,257.681,447.404z"/>
<path d="M227.214,348.145c1.853,3.208,5.213,5.002,8.67,5.002c1.696,0,3.416-0.433,4.99-1.342l52.619-30.38
	c4.783-2.761,6.422-8.877,3.66-13.66l-30.38-52.619c-2.761-4.782-8.877-6.422-13.66-3.66l-52.619,30.38
	c-4.783,2.761-6.422,8.877-3.66,13.66L227.214,348.145z M254.454,273.805l20.38,35.3l-35.3,20.38l-20.38-35.3L254.454,273.805z"/>
<path d="M241.478,379.068l-62.353-36c-4.785-2.763-10.9-1.123-13.66,3.66l-36,62.353c-1.326,2.297-1.686,5.026-0.999,7.588
	c0.687,2.562,2.362,4.746,4.659,6.072l62.353,36c1.575,0.91,3.294,1.342,4.99,1.342c3.456,0,6.818-1.794,8.67-5.002l36-62.353
	c1.326-2.297,1.686-5.026,0.999-7.588C245.451,382.578,243.775,380.394,241.478,379.068z M196.819,436.422l-45.034-26l26-45.033
	l45.034,26L196.819,436.422z"/>
<g>
</g>
<g>
</g>
<g>
</g>
<g>
</g>
<g>
</g>
<g>
</g>
<g>
</g>
<g>
</g>
<g>
</g>
<g>
</g>
<g>
</g>
<g>
</g>
<g>
</g>
<g>
</g>
<g>
</g>
</svg>
