<svg height="512pt" viewBox="-20 0 512 512" width="512pt" xmlns="http://www.w3.org/2000/svg"><path d="m56.242188 314.554688 29.351562 150.84375c4.417969 22.707031 24.308594 39.101562 47.441406 39.101562h205.859375c23.132813 0 43.023438-16.394531 47.441407-39.101562l29.347656-150.84375zm0 0" fill="#b0f0ef"/><path d="m124.082031 314.554688 32.265625 189.945312h159.234375l32.265625-189.945312zm0 0" fill="#76e7e7"/><path d="m262.660156 504.5 15.5-189.945312h-84.394531l15.503906 189.945312zm0 0" fill="#2eddda"/><path d="m235.964844 34.660156c-193.804688 0-228.464844 166.5625-228.464844 217.195313 0 50.632812 41.042969 91.675781 91.675781 91.675781 19.421875 0 37.425781-6.042969 52.25-16.347656 9.75-6.78125 22.539063-6.78125 32.289063 0 14.820312 10.304687 32.828125 16.347656 52.25 16.347656s37.425781-6.042969 52.25-16.347656c9.75-6.78125 22.539062-6.78125 32.289062 0 14.820313 10.304687 32.824219 16.347656 52.25 16.347656 50.628906 0 91.675782-41.042969 91.675782-91.675781 0-50.632813-34.664063-217.195313-228.464844-217.195313zm0 0" fill="#ffc7a4"/><path d="m235.964844 274.730469c-91.628906-65.898438-90.644532-225.257813-90.644532-225.257813-114.609374 41.90625-137.820312 160.953125-137.820312 202.382813 0 50.632812 41.046875 91.675781 91.675781 91.675781 19.421875 0 37.429688-6.042969 52.25-16.347656 9.75-6.78125 22.539063-6.78125 32.289063 0 14.824218 10.304687 32.828125 16.347656 52.25 16.347656 14.597656 0 28.398437-3.414062 40.644531-9.488281-6.011719-22.4375-18.398437-43.3125-40.644531-59.3125zm0 0" fill="#ffaa75"/><path d="m98.78125 208.570312c59.257812 0 66.96875-58.199218 137.183594-58.199218s77.925781 58.199218 137.183594 58.199218c59.253906 0 68.914062-50.300781 68.914062-50.300781-27.695312-60.390625-86.679688-123.609375-206.097656-123.609375-119.417969 0-178.390625 63.195313-206.085938 123.585938 0 0 9.648438 50.324218 68.902344 50.324218zm0 0" fill="#dd6642"/><path d="m98.78125 208.570312c31.957031 0 48.921875-16.925781 68.785156-32.523437-22.636718-63.292969-22.246094-126.574219-22.246094-126.574219-60.84375 22.25-95.914062 66.199219-115.441406 108.773438 0 0 9.648438 50.324218 68.902344 50.324218zm0 0" fill="#b24e2f"/><path d="m125.648438 87.871094c0 15.003906-12.160157 27.164062-27.164063 27.164062-15 0-27.160156-12.160156-27.160156-27.164062 0-15 12.160156-27.160156 27.160156-27.160156 15.003906 0 27.164063 12.160156 27.164063 27.160156zm0 0" fill="#f4e74d"/><path d="m217.09375 34.660156c0 15.003906-12.160156 27.164063-27.160156 27.164063-15.003906 0-27.164063-12.160157-27.164063-27.164063 0-15 12.160157-27.160156 27.164063-27.160156 15 0 27.160156 12.160156 27.160156 27.160156zm0 0" fill="#ffabcd"/><path d="m300.015625 94.453125c0 15.003906-12.160156 27.164063-27.160156 27.164063s-27.164063-12.160157-27.164063-27.164063c0-15 12.164063-27.160156 27.164063-27.160156s27.160156 12.160156 27.160156 27.160156zm0 0" fill="#76e7e7"/><path d="m409.195312 78.035156c0 15.003906-12.160156 27.164063-27.164062 27.164063-15 0-27.160156-12.160157-27.160156-27.164063 0-15 12.160156-27.160156 27.160156-27.160156 15.003906 0 27.164062 12.160156 27.164062 27.160156zm0 0" fill="#f9ee80"/><path d="m410.949219 97.117188c3.625-5.476563 5.746093-12.035157 5.746093-19.082032 0-19.109375-15.550781-34.660156-34.664062-34.660156-10.09375 0-19.191406 4.339844-25.535156 11.25-34.105469-18.222656-64.671875-27.234375-132.675782-27.234375-3.351562-15.632813-17.269531-27.390625-33.886718-27.390625-27.164063 0-36.921875 26.617188-34.480469 38.222656-15.214844 4.574219-29.613281 10.609375-42.894531 17.984375-14.070313-4.648437-48.476563-2.023437-48.261719 37.328125-50.660156 53.210938-64.296875 124.226563-64.296875 158.320313 0 38.238281 21.753906 71.484375 53.53125 88.03125l24.699219 126.949219c5.09375 26.167968 28.140625 45.164062 54.804687 45.164062h205.859375c26.664063 0 49.710938-18.996094 54.800781-45.167969l24.703126-126.957031c13.878906-7.199219 26.070312-17.664062 35.347656-30.769531 2.390625-3.378907 1.59375-8.0625-1.789063-10.453125-3.382812-2.394532-8.058593-1.59375-10.453125 1.785156-15.78125 22.289062-41.484375 35.59375-68.75 35.59375-17.261718 0-33.847656-5.1875-47.96875-15.007812-12.410156-8.628907-28.445312-8.628907-40.851562 0-14.121094 9.820312-30.707032 15.007812-47.96875 15.007812-17.261719 0-33.847656-5.1875-47.96875-15.007812-12.40625-8.628907-28.441406-8.628907-40.851563 0-14.121093 9.820312-30.707031 15.007812-47.964843 15.007812-46.417969 0-84.179688-37.761719-84.179688-84.175781 0-28.722657 11.875-93.761719 55.769531-143.199219 6.328125 8.421875 16.398438 13.875 27.71875 13.875 19.113281 0 34.660157-15.546875 34.660157-34.660156 0-8.164063-2.84375-15.671875-7.582032-21.601563 10.855469-5.546875 22.460938-10.175781 34.636719-13.8125 6.066406 10.09375 17.121094 16.867188 29.730469 16.867188 16.453125 0 30.253906-11.523438 33.78125-26.921875 58.265625 0 93.4375 8.339844 125.253906 25.230468-11.53125 37.566407 33.066406 55.136719 51.214844 39.917969 13.527344 14.960938 24.878906 32.1875 33.953125 51.453125-1.09375 3.734375-10.757813 42.066406-60.988281 42.066406-25.726563 0-40.441407-11.859374-57.480469-25.589843-18.964844-15.285157-40.460938-32.609375-79.703125-32.609375-39.242188 0-60.738282 17.324218-79.703125 32.609375-17.039063 13.730469-31.753907 25.589843-57.480469 25.589843-19.007812 0-34.371094-5.578124-45.660156-16.582031-2.96875-2.890625-7.714844-2.828125-10.605469.136719-2.894531 2.96875-2.832031 7.714844.136719 10.605469 14.1875 13.828125 33.074218 20.839843 56.128906 20.839843 31.019531 0 49.253906-14.699218 66.890625-28.910156 18.691406-15.0625 36.34375-29.289062 70.292969-29.289062 33.949218 0 51.601562 14.226562 70.292968 29.289062 17.632813 14.210938 35.871094 28.910156 66.890626 28.910156 52.855468 0 67.304687-34.679687 69.046874-37.828124.917969 2.480468 14.734376 33.652343 14.734376 73.613281 0 7.972656-1.113282 15.863281-3.304688 23.441406-1.152344 3.980469 1.148438 8.113281 5.121094 9.289063 4.730468 1.398437 8.339844-1.835938 9.289062-5.121094 2.585938-8.933594 3.894532-18.226563 3.894532-27.609375 0-33.0625-12.984376-101.878907-60.980469-154.738281zm-9.152344 249.546874-22.824219 117.304688c-3.722656 19.140625-20.578125 33.03125-40.078125 33.03125h-14.433593l25.253906-148.664062c7.480468 1.777343 27.5625 6.476562 52.082031-1.671876zm-85.574219-13.324218c6.007813 4.179687 12.398438 7.632812 19.066406 10.359375l-26.042968 153.300781h-38.445313l12.949219-158.242188c2.988281-1.648437 5.914062-3.449218 8.746094-5.417968 7.203125-5.011719 16.519531-5.011719 23.726562 0zm-48.089844 12.34375-12.382812 151.316406h-39.570312l-12.347657-151.300781c10.253907 3.511719 32.132813 11.414062 64.300781-.015625zm-145.917968 2.652344 13.621094 80.1875c.621093 3.660156 3.792968 6.246093 7.382812 6.246093.417969 0 .839844-.035156 1.265625-.105469 4.082031-.695312 6.832031-4.566406 6.136719-8.652343l-13.980469-82.3125c6.664063-2.722657 13.058594-6.179688 19.066406-10.359375 7.207031-5.011719 16.519531-5.011719 23.726563 0 2.84375 1.980468 5.78125 3.785156 8.785156 5.441406l12.914062 158.21875h-38.453124l-6.871094-40.464844c-.695313-4.082031-4.566406-6.820312-8.652344-6.136718-4.082031.691406-6.832031 4.566406-6.136719 8.648437l6.445313 37.953125h-14.429688c-19.5 0-36.355468-13.890625-40.082031-33.03125l-22.816406-117.277344c9.1875 2.820313 27.671875 7.867188 52.078125 1.644532zm-23.726563-240.804688c-10.84375 0-19.664062-8.816406-19.664062-19.660156 0-10.839844 8.820312-19.660156 19.664062-19.660156 10.839844 0 19.660157 8.820312 19.660157 19.660156 0 10.84375-8.820313 19.660156-19.660157 19.660156zm91.445313-53.207031c-10.839844 0-19.664063-8.820313-19.664063-19.664063 0-10.839844 8.820313-19.660156 19.664063-19.660156 10.839844 0 19.660156 8.820312 19.660156 19.660156 0 10.84375-8.820312 19.664063-19.660156 19.664063zm172.4375 23.710937c0-10.839844 8.820312-19.660156 19.660156-19.660156 10.84375 0 19.664062 8.820312 19.664062 19.660156 0 10.84375-8.820312 19.664063-19.664062 19.664063-10.839844 0-19.660156-8.820313-19.660156-19.664063zm0 0"/><path d="m307.515625 94.453125c0-19.109375-15.546875-34.660156-34.660156-34.660156s-34.664063 15.550781-34.664063 34.660156c0 19.113281 15.550782 34.660156 34.664063 34.660156s34.660156-15.546875 34.660156-34.660156zm-54.324219 0c0-10.839844 8.820313-19.660156 19.664063-19.660156 10.839843 0 19.660156 8.820312 19.660156 19.660156 0 10.84375-8.820313 19.660156-19.660156 19.660156-10.84375 0-19.664063-8.816406-19.664063-19.660156zm0 0"/></svg>