<svg height="480pt" viewBox="-20 0 480 480.02678" width="480pt" xmlns="http://www.w3.org/2000/svg"><path d="m368.011719 232.027344c0 26.507812-21.488281 48-48 48-26.507813 0-48-21.492188-48-48 0-26.511719 21.492187-48 48-48 26.511719 0 48 21.488281 48 48zm0 0" fill="#c69c6d"/><path d="m328.011719 248.027344c0 26.507812-21.488281 48-48 48-26.507813 0-48-21.492188-48-48 0-26.511719 21.492187-48 48-48 26.511719 0 48 21.488281 48 48zm0 0" fill="#a67c52"/><path d="m152.011719 432.027344h96v40h-96zm0 0" fill="#dd4b1d"/><path d="m8.011719 248.027344h384v31.503906c0 88.640625-71.859375 160.5-160.503907 160.496094h-63c-88.636718 0-160.496093-71.855469-160.496093-160.496094zm0 0" fill="#f15a24"/><path d="m71.320312 32.109375 367.996094-32.109375 1.390625 15.9375-367.996093 32.113281zm0 0" fill="#ed1c24"/><path d="m72.011719 64.027344h368v16h-368zm0 0" fill="#ed1c24"/><path d="m120.011719 64.027344c8.839843 0 16 7.164062 16 16v168h-32v-168c0-8.835938 7.164062-16 16-16zm0 0" fill="#fce9c0"/><path d="m152.011719 64.027344c8.839843 0 16 7.164062 16 16v168h-32v-168c0-8.835938 7.164062-16 16-16zm0 0" fill="#fbe3a9"/><path d="m184.011719 64.027344c8.839843 0 16 7.164062 16 16v168h-32v-168c0-8.835938 7.164062-16 16-16zm0 0" fill="#fce9c0"/><path d="m8.011719 248.027344h384v32h-384zm0 0" fill="#f8cf26"/><path d="m344.011719 320.027344h-48v32h-16v-32h-48v32h-16v-32h-48v32h-16v-32h-48v32h-16v-32h-48v32h-14.558594c2.761719 5.503906 5.839844 10.847656 9.214844 16h21.34375v-32h16v32h48v-32h16v32h48v-32h16v32h48v-32h16v32h48v-32h16v32h37.34375c3.378906-5.152344 6.457031-10.496094 9.21875-16h-30.5625zm0 0" fill="#f8cf26"/><g fill="#557c3e"><path d="m58.359375 181.683594 11.316406-11.3125 15.996094 15.996094-11.3125 11.316406zm0 0"/><path d="m178.359375 186.371094 15.996094-15.996094 11.3125 11.3125-15.996094 15.996094zm0 0"/><path d="m98.359375 125.683594 11.3125-11.316406 16 16-11.316406 11.3125zm0 0"/><path d="m208.011719 96.027344h16v16h-16zm0 0"/></g><path d="m71.320312 32.109375 367.996094-32.109375 1.390625 15.9375-367.996093 32.113281zm0 0"/><path d="m184.011719 56.027344c-5.921875.019531-11.625 2.246094-16 6.238281-9.042969-8.320313-22.953125-8.320313-32 0-4.671875-4.300781-10.878907-6.539063-17.21875-6.207031-6.34375.332031-12.285157 3.203125-16.484375 7.96875h-30.296875v16h24v160h-88c-4.417969 0-8.0000002 3.582031-8.0000002 8v32 .167968c.1328122 30.175782 8.4257812 59.753907 24.0000002 85.597657v2.234375h1.386719c26.121093 42.199218 69.519531 70.742187 118.613281 78.007812v25.992188c0 4.417968 3.582031 8 8 8h96c4.421875 0 8-3.582032 8-8v-25.992188c49.097656-7.265625 92.496093-35.808594 118.617187-78.007812h1.382813v-2.273438c15.570312-25.832031 23.863281-55.398437 24-85.558594 0-.054687 0-.113281 0-.167968v-32c0-4.417969-3.578125-8-8-8h-16.679688c.421875-2.648438.648438-5.320313.679688-8 .046875-22.550782-13.460938-42.925782-34.246094-51.664063-20.789063-8.742187-44.796875-4.144531-60.878906 11.664063-.296875 0-.578125 0-.875 0-27.804688.050781-51.367188 20.484375-55.359375 48h-16.640625v-128h16v-16h-16v-16h232v-16h-238.238281c-4.515626-5.070313-10.972657-7.980469-17.761719-8zm-32 16c4.421875 0 8 3.582031 8 8v160h-16v-160c0-4.417969 3.582031-8 8-8zm-40 67.3125 2.34375 2.34375 11.3125-11.3125-13.65625-13.65625v-36.6875c-.003907-1.40625.363281-2.785156 1.074219-4 1.808593-3.136719 5.5-4.664063 8.996093-3.726563 3.5.9375 5.929688 4.105469 5.929688 7.726563v160h-16zm184 180.6875v32h-16v-32h-48v32h-16v-32h-48v32h-16v-32h-48v32h-16v-32h-48v32h-5.597657c-10.640624-19.742188-16.769531-41.601563-17.9375-64h367.105469c-1.179687 22.398437-7.316406 44.257812-17.96875 64h-21.601562v-32zm-56 128v16h-80v-16zm-8.503907-16h-63c-49.230468-.046875-95.40625-23.886719-123.949218-64h11.453125v-32h16v32h48v-32h16v32h48v-32h16v32h48v-32h16v32h48v-32h16v32h27.457031c-28.546875 40.113281-74.722656 63.953125-123.960938 64zm88.503907-240c12.042969-.109375 23.484375 5.265625 31.09375 14.601562 7.605469 9.335938 10.558593 21.625 8.019531 33.398438h-23.75c-2.816406-19.378906-15.527344-35.890625-33.539062-43.570313 5.625-2.890625 11.855468-4.410156 18.175781-4.429687zm-40 16c19.003906.023437 35.375 13.386718 39.203125 32h-78.402344c3.828125-18.613282 20.199219-31.976563 39.199219-32zm104 48v16h-368v-16zm-208-16v-160c0-4.417969 3.582031-8 8-8 4.421875 0 8 3.582031 8 8v92.6875l-13.65625 13.65625 11.3125 11.3125 2.34375-2.34375v44.6875zm0 0"/><path d="m58.359375 181.683594 11.316406-11.3125 15.996094 15.996094-11.3125 11.316406zm0 0"/></svg>